<?xml version="1.0" encoding="UTF-8" standalone="no"?>
<svg
   xmlns="http://www.w3.org/2000/svg"
   height="24"
   width="18"
   viewBox="0 0 100 1833.9758">
  <view id="1" viewBox="0 0 100 141.07506154" />
  <view id="3" viewBox="0 141.07506154 100 141.07506154" />
  <view id="4" viewBox="0 282.15012308 100 141.07506154" />
  <view id="5" viewBox="0 423.22518462 100 141.07506154" />
  <view id="7" viewBox="0 564.300246 100 141.07506154" />
  <view id="8" viewBox="0 705.375307 100 141.07506154" />
  <view id="10" viewBox="0 846.450369 100 141.07506154" />
  <view id="11" viewBox="0 987.52543 100 141.07506154" />
  <view id="12" viewBox="0 1128.60049 100 141.07506154" />
  <view id="13" viewBox="0 1269.67555 100 141.07506154" />
  <view id="14" viewBox="0 1410.75061 100 141.07506154" />
  <view id="15" viewBox="0 1551.82567 100 141.07506154" />
  <view id="16" viewBox="0 1692.90073 100 141.07506154" />
  <g>
    <path
       d="m 50,1697.3093 52.90315,66.129 L 50,1829.5672 -2.9031496,1763.4383 Z"
       style="opacity:1;fill:#68389a;fill-opacity:1;stroke:none;" />
    <path
       style="opacity:1;fill:#dcb5d1;fill-opacity:1;stroke:none;"
       d="M 50,1722.2914 82.917516,1763.4383 50,1804.5852 17.082484,1763.4383 Z" />
  </g>
  <g
     transform="translate(0,-141.0751)">
    <path
       style="opacity:1;fill:#f5c042;fill-opacity:1;stroke:none;"
       d="m 50,1697.3093 52.90315,66.129 L 50,1829.5672 -2.9031496,1763.4383 Z" />
    <path
       d="M 50,1722.2914 82.917516,1763.4383 50,1804.5852 17.082484,1763.4383 Z"
       style="opacity:1;fill:#fae6a3;fill-opacity:1;stroke:none;" />
  </g>
  <g
     transform="translate(0,-282.15016)">
    <path
       d="m 50,1697.3093 52.90315,66.129 L 50,1829.5672 -2.9031496,1763.4383 Z"
       style="opacity:1;fill:#eb3223;fill-opacity:1;stroke:none;" />
    <path
       style="opacity:1;fill:#ebaa9e;fill-opacity:1;stroke:none;"
       d="M 50,1722.2914 82.917516,1763.4383 50,1804.5852 17.082484,1763.4383 Z" />
  </g>
  <g
     transform="translate(0,-423.22522)">
    <path
       style="opacity:1;fill:#b79030;fill-opacity:1;stroke:none;"
       d="m 50,1697.3093 52.90315,66.129 L 50,1829.5672 -2.9031496,1763.4383 Z" />
    <path
       d="M 50,1722.2914 82.917516,1763.4383 50,1804.5852 17.082484,1763.4383 Z"
       style="opacity:1;fill:#bfbebe;fill-opacity:1;stroke:none;" />
  </g>
  <g
     transform="translate(0,-564.30027)">
    <path
       d="m 50,1697.3093 52.90315,66.129 L 50,1829.5672 -2.9031496,1763.4383 Z"
       style="opacity:1;fill:#515151;fill-opacity:1;stroke:none;" />
    <path
       style="opacity:1;fill:#bebebf;fill-opacity:1;stroke:none;"
       d="M 50,1722.2914 82.917516,1763.4383 50,1804.5852 17.082484,1763.4383 Z" />
  </g>
  <g
     transform="translate(0,-705.37535)">
    <path
       style="opacity:1;fill:#b75f29;fill-opacity:1;stroke:none;"
       d="m 50,1697.3093 52.90315,66.129 L 50,1829.5672 -2.9031496,1763.4383 Z" />
    <path
       d="M 50,1722.2914 82.917516,1763.4383 50,1804.5852 17.082484,1763.4383 Z"
       style="opacity:1;fill:#bebfbe;fill-opacity:1;stroke:none;" />
  </g>
  <g
     transform="translate(0,-846.45039)">
    <path
       d="m 50,1697.3093 52.90315,66.129 L 50,1829.5672 -2.9031496,1763.4383 Z"
       style="opacity:1;fill:#b1ce94;fill-opacity:1;stroke:none;" />
    <path
       style="opacity:1;fill:#e4efdb;fill-opacity:1;stroke:none;"
       d="M 50,1722.2914 82.917516,1763.4383 50,1804.5852 17.082484,1763.4383 Z" />
  </g>
  <g
     transform="translate(0,-987.52547)">
    <path
       style="opacity:1;fill:#3f74b0;fill-opacity:1;stroke:none;"
       d="m 50,1697.3093 52.90315,66.129 L 50,1829.5672 -2.9031496,1763.4383 Z" />
    <path
       d="M 50,1722.2914 82.917516,1763.4383 50,1804.5852 17.082484,1763.4383 Z"
       style="opacity:1;fill:#689ad0;fill-opacity:1;stroke:none;" />
  </g>
  <g
     transform="translate(0,-1128.6005)">
    <path
       d="m 50,1697.3093 52.90315,66.129 L 50,1829.5672 -2.9031496,1763.4383 Z"
       style="opacity:1;fill:#b02218;fill-opacity:1;stroke:none;" />
    <path
       style="opacity:1;fill:#e17863;fill-opacity:1;stroke:none;"
       d="M 50,1722.2914 82.917516,1763.4383 50,1804.5852 17.082484,1763.4383 Z" />
  </g>
  <g
     transform="translate(0,-1269.6756)">
    <path
       style="opacity:1;fill:#7a601d;fill-opacity:1;stroke:none;"
       d="m 50,1697.3093 52.90315,66.129 L 50,1829.5672 -2.9031496,1763.4383 Z" />
    <path
       d="M 50,1722.2914 82.917516,1763.4383 50,1804.5852 17.082484,1763.4383 Z"
       style="opacity:1;fill:#fcf1cf;fill-opacity:1;stroke:none;" />
  </g>
  <g
     transform="translate(0,-1410.7506)">
    <path
       d="m 50,1697.3093 52.90315,66.129 L 50,1829.5672 -2.9031496,1763.4383 Z"
       style="opacity:1;fill:#b89131;fill-opacity:1;stroke:none;" />
    <path
       style="opacity:1;fill:#f6c043;fill-opacity:1;stroke:none;"
       d="M 50,1722.2914 82.917516,1763.4383 50,1804.5852 17.082484,1763.4383 Z" />
  </g>
  <g
     transform="translate(0,-1551.8257)">
    <path
       style="opacity:1;fill:#5e803f;fill-opacity:1;stroke:none;"
       d="m 50,1697.3093 52.90315,66.129 L 50,1829.5672 -2.9031496,1763.4383 Z" />
    <path
       d="M 50,1722.2914 82.917516,1763.4383 50,1804.5852 17.082484,1763.4383 Z"
       style="opacity:1;fill:#b0ce94;fill-opacity:1;stroke:none;" />
  </g>
  <g
     transform="translate(0,-1692.9008)">
    <path
       d="m 50,1697.3093 52.90315,66.129 L 50,1829.5672 -2.9031496,1763.4383 Z"
       style="opacity:1;fill:#be7041;fill-opacity:1;stroke:none;" />
    <path
       style="opacity:1;fill:#e9b28a;fill-opacity:1;stroke:none;"
       d="M 50,1722.2914 82.917516,1763.4383 50,1804.5852 17.082484,1763.4383 Z" />
  </g>
</svg>
