<?xml version="1.0" encoding="UTF-8" standalone="no"?>
<svg
   xmlns:dc="http://purl.org/dc/elements/1.1/"
   xmlns:cc="http://creativecommons.org/ns#"
   xmlns:rdf="http://www.w3.org/1999/02/22-rdf-syntax-ns#"
   xmlns:svg="http://www.w3.org/2000/svg"
   xmlns="http://www.w3.org/2000/svg"
   style="fill:none;stroke:none;stroke-linecap:square;stroke-miterlimit:10"
   id="svg23"
   stroke-miterlimit="10"
   height="312"
   width="18"
   viewBox="0 0 100 1833.9758"
   version="1.1">
  <metadata
     id="metadata29">
    <rdf:RDF>
      <cc:Work
         rdf:about="">
        <dc:format>image/svg+xml</dc:format>
        <dc:type
           rdf:resource="http://purl.org/dc/dcmitype/StillImage" />
        <dc:title></dc:title>
      </cc:Work>
    </rdf:RDF>
  </metadata>
  <defs
     id="defs27" />
  <clipPath
     id="p.0">
    <path
       style="clip-rule:nonzero"
       id="path2"
       d="M 0,0 H 100 V 176.34383 H 0 Z" />
  </clipPath>
  <g
     id="g4605">
    <path
       id="path4552"
       d="m 50,1697.3093 52.90315,66.129 L 50,1829.5672 -2.9031496,1763.4383 Z"
       style="opacity:1;fill:#68389a;fill-opacity:1;stroke:none;stroke-width:8.31240749;stroke-linecap:round;stroke-miterlimit:4;stroke-dasharray:none;stroke-opacity:1" />
    <path
       style="opacity:1;fill:#dcb5d1;fill-opacity:1;stroke:none;stroke-width:5.17216444;stroke-linecap:round;stroke-miterlimit:4;stroke-dasharray:none;stroke-opacity:1"
       d="M 50,1722.2914 82.917516,1763.4383 50,1804.5852 17.082484,1763.4383 Z"
       id="path4554" />
  </g>
  <g
     transform="translate(0,-141.0751)"
     id="g4611">
    <path
       style="opacity:1;fill:#f5c042;fill-opacity:1;stroke:none;stroke-width:8.31240749;stroke-linecap:round;stroke-miterlimit:4;stroke-dasharray:none;stroke-opacity:1"
       d="m 50,1697.3093 52.90315,66.129 L 50,1829.5672 -2.9031496,1763.4383 Z"
       id="path4607" />
    <path
       id="path4609"
       d="M 50,1722.2914 82.917516,1763.4383 50,1804.5852 17.082484,1763.4383 Z"
       style="opacity:1;fill:#fae6a3;fill-opacity:1;stroke:none;stroke-width:5.17216444;stroke-linecap:round;stroke-miterlimit:4;stroke-dasharray:none;stroke-opacity:1" />
  </g>
  <g
     id="g4617"
     transform="translate(0,-282.15016)">
    <path
       id="path4613"
       d="m 50,1697.3093 52.90315,66.129 L 50,1829.5672 -2.9031496,1763.4383 Z"
       style="opacity:1;fill:#eb3223;fill-opacity:1;stroke:none;stroke-width:8.31240749;stroke-linecap:round;stroke-miterlimit:4;stroke-dasharray:none;stroke-opacity:1" />
    <path
       style="opacity:1;fill:#ebaa9e;fill-opacity:1;stroke:none;stroke-width:5.17216444;stroke-linecap:round;stroke-miterlimit:4;stroke-dasharray:none;stroke-opacity:1"
       d="M 50,1722.2914 82.917516,1763.4383 50,1804.5852 17.082484,1763.4383 Z"
       id="path4615" />
  </g>
  <g
     transform="translate(0,-423.22522)"
     id="g4623">
    <path
       style="opacity:1;fill:#b79030;fill-opacity:1;stroke:none;stroke-width:8.31240749;stroke-linecap:round;stroke-miterlimit:4;stroke-dasharray:none;stroke-opacity:1"
       d="m 50,1697.3093 52.90315,66.129 L 50,1829.5672 -2.9031496,1763.4383 Z"
       id="path4619" />
    <path
       id="path4621"
       d="M 50,1722.2914 82.917516,1763.4383 50,1804.5852 17.082484,1763.4383 Z"
       style="opacity:1;fill:#bfbebe;fill-opacity:1;stroke:none;stroke-width:5.17216444;stroke-linecap:round;stroke-miterlimit:4;stroke-dasharray:none;stroke-opacity:1" />
  </g>
  <g
     id="g4629"
     transform="translate(0,-564.30027)">
    <path
       id="path4625"
       d="m 50,1697.3093 52.90315,66.129 L 50,1829.5672 -2.9031496,1763.4383 Z"
       style="opacity:1;fill:#515151;fill-opacity:1;stroke:none;stroke-width:8.31240749;stroke-linecap:round;stroke-miterlimit:4;stroke-dasharray:none;stroke-opacity:1" />
    <path
       style="opacity:1;fill:#bebebf;fill-opacity:1;stroke:none;stroke-width:5.17216444;stroke-linecap:round;stroke-miterlimit:4;stroke-dasharray:none;stroke-opacity:1"
       d="M 50,1722.2914 82.917516,1763.4383 50,1804.5852 17.082484,1763.4383 Z"
       id="path4627" />
  </g>
  <g
     transform="translate(0,-705.37535)"
     id="g4635">
    <path
       style="opacity:1;fill:#b75f29;fill-opacity:1;stroke:none;stroke-width:8.31240749;stroke-linecap:round;stroke-miterlimit:4;stroke-dasharray:none;stroke-opacity:1"
       d="m 50,1697.3093 52.90315,66.129 L 50,1829.5672 -2.9031496,1763.4383 Z"
       id="path4631" />
    <path
       id="path4633"
       d="M 50,1722.2914 82.917516,1763.4383 50,1804.5852 17.082484,1763.4383 Z"
       style="opacity:1;fill:#bebfbe;fill-opacity:1;stroke:none;stroke-width:5.17216444;stroke-linecap:round;stroke-miterlimit:4;stroke-dasharray:none;stroke-opacity:1" />
  </g>
  <g
     id="g4641"
     transform="translate(0,-846.45039)">
    <path
       id="path4637"
       d="m 50,1697.3093 52.90315,66.129 L 50,1829.5672 -2.9031496,1763.4383 Z"
       style="opacity:1;fill:#b1ce94;fill-opacity:1;stroke:none;stroke-width:8.31240749;stroke-linecap:round;stroke-miterlimit:4;stroke-dasharray:none;stroke-opacity:1" />
    <path
       style="opacity:1;fill:#e4efdb;fill-opacity:1;stroke:none;stroke-width:5.17216444;stroke-linecap:round;stroke-miterlimit:4;stroke-dasharray:none;stroke-opacity:1"
       d="M 50,1722.2914 82.917516,1763.4383 50,1804.5852 17.082484,1763.4383 Z"
       id="path4639" />
  </g>
  <g
     transform="translate(0,-987.52547)"
     id="g4647">
    <path
       style="opacity:1;fill:#3f74b0;fill-opacity:1;stroke:none;stroke-width:8.31240749;stroke-linecap:round;stroke-miterlimit:4;stroke-dasharray:none;stroke-opacity:1"
       d="m 50,1697.3093 52.90315,66.129 L 50,1829.5672 -2.9031496,1763.4383 Z"
       id="path4643" />
    <path
       id="path4645"
       d="M 50,1722.2914 82.917516,1763.4383 50,1804.5852 17.082484,1763.4383 Z"
       style="opacity:1;fill:#689ad0;fill-opacity:1;stroke:none;stroke-width:5.17216444;stroke-linecap:round;stroke-miterlimit:4;stroke-dasharray:none;stroke-opacity:1" />
  </g>
  <g
     id="g4653"
     transform="translate(0,-1128.6005)">
    <path
       id="path4649"
       d="m 50,1697.3093 52.90315,66.129 L 50,1829.5672 -2.9031496,1763.4383 Z"
       style="opacity:1;fill:#b02218;fill-opacity:1;stroke:none;stroke-width:8.31240749;stroke-linecap:round;stroke-miterlimit:4;stroke-dasharray:none;stroke-opacity:1" />
    <path
       style="opacity:1;fill:#e17863;fill-opacity:1;stroke:none;stroke-width:5.17216444;stroke-linecap:round;stroke-miterlimit:4;stroke-dasharray:none;stroke-opacity:1"
       d="M 50,1722.2914 82.917516,1763.4383 50,1804.5852 17.082484,1763.4383 Z"
       id="path4651" />
  </g>
  <g
     transform="translate(0,-1269.6756)"
     id="g4659">
    <path
       style="opacity:1;fill:#7a601d;fill-opacity:1;stroke:none;stroke-width:8.31240749;stroke-linecap:round;stroke-miterlimit:4;stroke-dasharray:none;stroke-opacity:1"
       d="m 50,1697.3093 52.90315,66.129 L 50,1829.5672 -2.9031496,1763.4383 Z"
       id="path4655" />
    <path
       id="path4657"
       d="M 50,1722.2914 82.917516,1763.4383 50,1804.5852 17.082484,1763.4383 Z"
       style="opacity:1;fill:#fcf1cf;fill-opacity:1;stroke:none;stroke-width:5.17216444;stroke-linecap:round;stroke-miterlimit:4;stroke-dasharray:none;stroke-opacity:1" />
  </g>
  <g
     id="g4665"
     transform="translate(0,-1410.7506)">
    <path
       id="path4661"
       d="m 50,1697.3093 52.90315,66.129 L 50,1829.5672 -2.9031496,1763.4383 Z"
       style="opacity:1;fill:#b89131;fill-opacity:1;stroke:none;stroke-width:8.31240749;stroke-linecap:round;stroke-miterlimit:4;stroke-dasharray:none;stroke-opacity:1" />
    <path
       style="opacity:1;fill:#f6c043;fill-opacity:1;stroke:none;stroke-width:5.17216444;stroke-linecap:round;stroke-miterlimit:4;stroke-dasharray:none;stroke-opacity:1"
       d="M 50,1722.2914 82.917516,1763.4383 50,1804.5852 17.082484,1763.4383 Z"
       id="path4663" />
  </g>
  <g
     transform="translate(0,-1551.8257)"
     id="g4671">
    <path
       style="opacity:1;fill:#5e803f;fill-opacity:1;stroke:none;stroke-width:8.31240749;stroke-linecap:round;stroke-miterlimit:4;stroke-dasharray:none;stroke-opacity:1"
       d="m 50,1697.3093 52.90315,66.129 L 50,1829.5672 -2.9031496,1763.4383 Z"
       id="path4667" />
    <path
       id="path4669"
       d="M 50,1722.2914 82.917516,1763.4383 50,1804.5852 17.082484,1763.4383 Z"
       style="opacity:1;fill:#b0ce94;fill-opacity:1;stroke:none;stroke-width:5.17216444;stroke-linecap:round;stroke-miterlimit:4;stroke-dasharray:none;stroke-opacity:1" />
  </g>
  <g
     id="g4677"
     transform="translate(0,-1692.9008)">
    <path
       id="path4673"
       d="m 50,1697.3093 52.90315,66.129 L 50,1829.5672 -2.9031496,1763.4383 Z"
       style="opacity:1;fill:#be7041;fill-opacity:1;stroke:none;stroke-width:8.31240749;stroke-linecap:round;stroke-miterlimit:4;stroke-dasharray:none;stroke-opacity:1" />
    <path
       style="opacity:1;fill:#e9b28a;fill-opacity:1;stroke:none;stroke-width:5.17216444;stroke-linecap:round;stroke-miterlimit:4;stroke-dasharray:none;stroke-opacity:1"
       d="M 50,1722.2914 82.917516,1763.4383 50,1804.5852 17.082484,1763.4383 Z"
       id="path4675" />
  </g>
</svg>
