<?xml version="1.0" encoding="UTF-8" standalone="no"?>
<svg
   xmlns="http://www.w3.org/2000/svg"
   viewBox="0 0 100 141.07506154"
   width="18"
   height="24">
  <view
     viewBox="0 0 100 141.07506154"
     id="1" />
  <view
     viewBox="0 141.07506154 100 141.07506154"
     id="3" />
  <view
     viewBox="0 282.15012308 100 141.07506154"
     id="4" />
  <view
     viewBox="0 423.22518462 100 141.07506154"
     id="5" />
  <view
     viewBox="0 564.300246 100 141.07506154"
     id="7" />
  <view
     viewBox="0 705.375307 100 141.07506154"
     id="8" />
  <view
     viewBox="0 846.450369 100 141.07506154"
     id="10" />
  <view
     viewBox="0 987.52543 100 141.07506154"
     id="11" />
  <view
     viewBox="0 1128.60049 100 141.07506154"
     id="12" />
  <view
     viewBox="0 1269.67555 100 141.07506154"
     id="13" />
  <view
     viewBox="0 1410.75061 100 141.07506154"
     id="14" />
  <view
     viewBox="0 1551.82567 100 141.07506154"
     id="15" />
  <view
     viewBox="0 1692.90073 100 141.07506154"
     id="16" />
  <view
     viewBox="0 1833.9758 100 141.07506154"
     id="2" />
  <view
     viewBox="0 1975.05086 100 141.07506154"
     id="6" />
  <view
     viewBox="0 2116.12592 100 141.07506154"
     id="9" />
  <view
     viewBox="0 2257.20098 100 141.07506154"
     id="17" />
  <view
     viewBox="0 2398.27604 100 141.07506154"
     id="18" />
  <g
     id="g1">
    <path
       id="path815"
       style="opacity:1;fill:#68389a;fill-opacity:1;stroke:none"
       d="m 50,1697.3093 52.90315,66.129 L 50,1829.5672 -2.9031496,1763.4383 Z" />
    <path
       id="path817"
       d="M 50,1722.2914 82.917516,1763.4383 50,1804.5852 17.082484,1763.4383 Z"
       style="opacity:1;fill:#dcb5d1;fill-opacity:1;stroke:none" />
  </g>
  <g
     transform="translate(0,-141.0751)"
     id="g3">
    <path
       id="path820"
       d="m 50,1697.3093 52.90315,66.129 L 50,1829.5672 -2.9031496,1763.4383 Z"
       style="opacity:1;fill:#f5c042;fill-opacity:1;stroke:none" />
    <path
       id="path822"
       style="opacity:1;fill:#fae6a3;fill-opacity:1;stroke:none"
       d="M 50,1722.2914 82.917516,1763.4383 50,1804.5852 17.082484,1763.4383 Z" />
  </g>
  <g
     transform="translate(0,-282.15016)"
     id="g4">
    <path
       id="path825"
       style="opacity:1;fill:#eb3223;fill-opacity:1;stroke:none"
       d="m 50,1697.3093 52.90315,66.129 L 50,1829.5672 -2.9031496,1763.4383 Z" />
    <path
       id="path827"
       d="M 50,1722.2914 82.917516,1763.4383 50,1804.5852 17.082484,1763.4383 Z"
       style="opacity:1;fill:#ebaa9e;fill-opacity:1;stroke:none" />
  </g>
  <g
     transform="translate(0,-423.22522)"
     id="g5">
    <path
       id="path830"
       d="m 50,1697.3093 52.90315,66.129 L 50,1829.5672 -2.9031496,1763.4383 Z"
       style="opacity:1;fill:#b79030;fill-opacity:1;stroke:none" />
    <path
       id="path832"
       style="opacity:1;fill:#bfbebe;fill-opacity:1;stroke:none"
       d="M 50,1722.2914 82.917516,1763.4383 50,1804.5852 17.082484,1763.4383 Z" />
  </g>
  <g
     transform="translate(0,-564.30027)"
     id="g7">
    <path
       id="path835"
       style="opacity:1;fill:#515151;fill-opacity:1;stroke:none"
       d="m 50,1697.3093 52.90315,66.129 L 50,1829.5672 -2.9031496,1763.4383 Z" />
    <path
       id="path837"
       d="M 50,1722.2914 82.917516,1763.4383 50,1804.5852 17.082484,1763.4383 Z"
       style="opacity:1;fill:#bebebf;fill-opacity:1;stroke:none" />
  </g>
  <g
     transform="translate(0,-705.37535)"
     id="g8">
    <path
       id="path840"
       d="m 50,1697.3093 52.90315,66.129 L 50,1829.5672 -2.9031496,1763.4383 Z"
       style="opacity:1;fill:#b75f29;fill-opacity:1;stroke:none" />
    <path
       id="path842"
       style="opacity:1;fill:#bebfbe;fill-opacity:1;stroke:none"
       d="M 50,1722.2914 82.917516,1763.4383 50,1804.5852 17.082484,1763.4383 Z" />
  </g>
  <g
     transform="translate(0,-846.45039)"
     id="g10">
    <path
       id="path845"
       style="opacity:1;fill:#b1ce94;fill-opacity:1;stroke:none"
       d="m 50,1697.3093 52.90315,66.129 L 50,1829.5672 -2.9031496,1763.4383 Z" />
    <path
       id="path847"
       d="M 50,1722.2914 82.917516,1763.4383 50,1804.5852 17.082484,1763.4383 Z"
       style="opacity:1;fill:#e4efdb;fill-opacity:1;stroke:none" />
  </g>
  <g
     transform="translate(0,-987.52547)"
     id="g11">
    <path
       id="path850"
       d="m 50,1697.3093 52.90315,66.129 L 50,1829.5672 -2.9031496,1763.4383 Z"
       style="opacity:1;fill:#3f74b0;fill-opacity:1;stroke:none" />
    <path
       id="path852"
       style="opacity:1;fill:#689ad0;fill-opacity:1;stroke:none"
       d="M 50,1722.2914 82.917516,1763.4383 50,1804.5852 17.082484,1763.4383 Z" />
  </g>
  <g
     transform="translate(0,-1128.6005)"
     id="g12">
    <path
       id="path855"
       style="opacity:1;fill:#b02218;fill-opacity:1;stroke:none"
       d="m 50,1697.3093 52.90315,66.129 L 50,1829.5672 -2.9031496,1763.4383 Z" />
    <path
       id="path857"
       d="M 50,1722.2914 82.917516,1763.4383 50,1804.5852 17.082484,1763.4383 Z"
       style="opacity:1;fill:#e17863;fill-opacity:1;stroke:none" />
  </g>
  <g
     transform="translate(0,-1269.6756)"
     id="g13">
    <path
       id="path860"
       d="m 50,1697.3093 52.90315,66.129 L 50,1829.5672 -2.9031496,1763.4383 Z"
       style="opacity:1;fill:#7a601d;fill-opacity:1;stroke:none" />
    <path
       id="path862"
       style="opacity:1;fill:#fcf1cf;fill-opacity:1;stroke:none"
       d="M 50,1722.2914 82.917516,1763.4383 50,1804.5852 17.082484,1763.4383 Z" />
  </g>
  <g
     transform="translate(0,-1410.7506)"
     id="g14">
    <path
       id="path865"
       style="opacity:1;fill:#b89131;fill-opacity:1;stroke:none"
       d="m 50,1697.3093 52.90315,66.129 L 50,1829.5672 -2.9031496,1763.4383 Z" />
    <path
       id="path867"
       d="M 50,1722.2914 82.917516,1763.4383 50,1804.5852 17.082484,1763.4383 Z"
       style="opacity:1;fill:#f6c043;fill-opacity:1;stroke:none" />
  </g>
  <g
     transform="translate(0,-1551.8257)"
     id="g15">
    <path
       id="path870"
       d="m 50,1697.3093 52.90315,66.129 L 50,1829.5672 -2.9031496,1763.4383 Z"
       style="opacity:1;fill:#5e803f;fill-opacity:1;stroke:none" />
    <path
       id="path872"
       style="opacity:1;fill:#b0ce94;fill-opacity:1;stroke:none"
       d="M 50,1722.2914 82.917516,1763.4383 50,1804.5852 17.082484,1763.4383 Z" />
  </g>
  <g
     transform="translate(0,-1692.9008)"
     id="g16">
    <path
       id="path875"
       style="opacity:1;fill:#be7041;fill-opacity:1;stroke:none"
       d="m 50,1697.3093 52.90315,66.129 L 50,1829.5672 -2.9031496,1763.4383 Z" />
    <path
       id="path877"
       d="M 50,1722.2914 82.917516,1763.4383 50,1804.5852 17.082484,1763.4383 Z"
       style="opacity:1;fill:#e9b28a;fill-opacity:1;stroke:none" />
  </g>
  <g
     id="g2"
     transform="translate(0,141.07882)">
    <path
       d="m 50,1697.3093 52.90315,66.129 L 50,1829.5672 -2.9031496,1763.4383 Z"
       style="opacity:1;fill:#a4a4a4;fill-opacity:1;stroke:none"
       id="path888" />
    <path
       style="opacity:1;fill:#d2d2d2;fill-opacity:1;stroke:none"
       d="M 50,1722.2914 82.917516,1763.4383 50,1804.5852 17.082484,1763.4383 Z"
       id="path890" />
  </g>
  <g
     transform="matrix(0.99999377,0,0,1,-1.8092844e-5,282.15671)"
     id="g6">
    <path
       id="path894"
       style="opacity:1;fill:#a4a4a4;fill-opacity:1;stroke:none"
       d="m 50,1697.3093 52.90315,66.129 L 50,1829.5672 -2.9031496,1763.4383 Z" />
    <path
       id="path896"
       d="M 50,1722.2914 82.917516,1763.4383 50,1804.5852 17.082484,1763.4383 Z"
       style="opacity:1;fill:#d2d2d2;fill-opacity:1;stroke:none" />
  </g>
  <g
     id="g9"
     transform="matrix(0.99999377,0,0,1,-1.8092844e-5,423.2346)">
    <path
       d="m 50,1697.3093 52.90315,66.129 L 50,1829.5672 -2.9031496,1763.4383 Z"
       style="opacity:1;fill:#a4a4a4;fill-opacity:1;stroke:none"
       id="path900" />
    <path
       style="opacity:1;fill:#d2d2d2;fill-opacity:1;stroke:none"
       d="M 50,1722.2914 82.917516,1763.4383 50,1804.5852 17.082484,1763.4383 Z"
       id="path902" />
  </g>
  <g
     transform="matrix(0.99999377,0,0,1,-1.8092844e-5,564.31249)"
     id="g17">
    <path
       id="path906"
       style="opacity:1;fill:#a4a4a4;fill-opacity:1;stroke:none"
       d="m 50,1697.3093 52.90315,66.129 L 50,1829.5672 -2.9031496,1763.4383 Z" />
    <path
       id="path908"
       d="M 50,1722.2914 82.917516,1763.4383 50,1804.5852 17.082484,1763.4383 Z"
       style="opacity:1;fill:#d2d2d2;fill-opacity:1;stroke:none" />
  </g>
  <g
     id="g18"
     transform="matrix(0.99999377,0,0,1,-1.8092844e-5,705.39038)">
    <path
       d="m 50,1697.3093 52.90315,66.129 L 50,1829.5672 -2.9031496,1763.4383 Z"
       style="opacity:1;fill:#a4a4a4;fill-opacity:1;stroke:none"
       id="path912" />
    <path
       style="opacity:1;fill:#d2d2d2;fill-opacity:1;stroke:none"
       d="M 50,1722.2914 82.917516,1763.4383 50,1804.5852 17.082484,1763.4383 Z"
       id="path914" />
  </g>
</svg>
