<?xml version="1.0" encoding="UTF-8"?>
<!DOCTYPE svg PUBLIC "-//W3C//DTD SVG 1.1//EN" "http://www.w3.org/Graphics/SVG/1.1/DTD/svg11.dtd">
<svg version="1.1" xmlns="http://www.w3.org/2000/svg" xmlns:xlink="http://www.w3.org/1999/xlink" x="0" y="0" width="36" height="22" viewBox="0, 0, 36, 22">
  <g id="Background">
    <rect x="0" y="0" width="36" height="22" fill="#000000" fill-opacity="0"/>
  </g>
  <g id="Flag">
    <path d="M2,-0 C2,-0 32,-0 34,-0 C36,-0 36,2 36,2 C36,2 36,18 36,20 C36,22 34,22 34,22 C34,22 4,22 2,22 C0,22 -0,20 -0,20 C-0,20 0,3 -0,2 C-0,-0 2,-0 2,-0 z" fill="#FF0002"/>
    <path d="M2,1 C2,1 33,1 34,1 C35,1 35,2 35,2 C35,2 35,19 35,20 C35,21 34,21 34,21 C34,21 3,21 2,21 C1,21 1,20 1,20 C1,20 1,3 1,2 C1,1 2,1 2,1 z" fill="#FA837D"/>
    <path d="M17,5 L20,5 L20,11.567 L17,11.567 z M17,13 L20,13 L20,16 L17,16 z" fill="#444443"/>
  </g>
</svg>
