<?xml version="1.0" encoding="UTF-8"?>
<!DOCTYPE svg PUBLIC "-//W3C//DTD SVG 1.1//EN" "http://www.w3.org/Graphics/SVG/1.1/DTD/svg11.dtd">
<svg version="1.1" xmlns="http://www.w3.org/2000/svg" xmlns:xlink="http://www.w3.org/1999/xlink" x="0" y="0" width="31" height="34" viewBox="0, 0, 31, 34">
  <g id="Background">
    <rect x="0" y="0" width="31" height="34" fill="#000000" fill-opacity="0"/>
  </g>
  <g id="Flag">
    <path d="M2,1 C2,1 27.909,1 29.455,1 C31,1 31,2.545 31,2.545 C31,2.545 31,14.909 31,16.455 C31,18 29.455,18 29.455,18 C29.455,18 3.545,18 2,18 C2,1.455 2,1 2,1 z" fill="#FF0002"/>
    <path d="M1,0 C1,0 1,0 2,0 C3,0 3,1 3,1 C3,1 3,32 3,33 C3,34 2,34 2,34 C2,34 2,34 1,34 C0,34 -0,33 -0,33 C-0,33 -0,2 -0,1 C0,0 1,0 1,0 z" fill="#000000"/>
    <path d="M1,1 L2,1 L2,33 L1,33 L1,1 z" fill="#444443"/>
    <path d="M5.455,2.545 C5.455,2.545 28,2.545 28.727,2.545 C29.455,2.545 29.455,3.241 29.455,3.241 C29.455,3.241 29.455,15.064 29.455,15.759 C29.455,16.455 28.727,16.455 28.727,16.455 C28.727,16.455 6.182,16.455 5.455,16.455 C4.727,16.455 4.727,15.759 4.727,15.759 C4.727,15.759 4.727,3.936 4.727,3.241 C4.727,2.545 5.455,2.545 5.455,2.545 z" fill="#FA837D"/>
    <g>
      <path d="M16.305,10.207 L16.076,6.785 Q16.012,5.784 16.012,5.349 Q16.012,4.755 16.323,4.423 Q16.634,4.091 17.141,4.091 Q17.755,4.091 17.963,4.516 Q18.17,4.941 18.17,5.742 Q18.17,6.213 18.12,6.699 L17.813,10.222 Q17.763,10.851 17.598,11.186 Q17.434,11.522 17.055,11.522 Q16.669,11.522 16.519,11.197 Q16.369,10.872 16.305,10.207 z M17.098,14.909 Q16.662,14.909 16.337,14.627 Q16.012,14.345 16.012,13.837 Q16.012,13.394 16.323,13.083 Q16.634,12.773 17.084,12.773 Q17.534,12.773 17.852,13.083 Q18.17,13.394 18.17,13.837 Q18.17,14.338 17.848,14.623 Q17.527,14.909 17.098,14.909 z" fill="#000000"/>
      <path d="M17.141,3.341 C17.817,3.341 18.361,3.622 18.637,4.187 C18.833,4.59 18.92,5.104 18.92,5.742 C18.92,6.082 18.902,6.427 18.867,6.764 L18.56,10.281 C18.52,10.786 18.429,11.194 18.272,11.516 C17.959,11.987 18.167,11.77 17.601,12.121 C18.016,12.2 17.732,12.122 18.376,12.547 C18.732,12.895 18.92,13.34 18.92,13.837 C18.92,14.377 18.729,14.844 18.347,15.184 C17.995,15.496 17.568,15.659 17.098,15.659 C16.627,15.659 16.199,15.5 15.845,15.193 C15.456,14.855 15.262,14.384 15.262,13.837 C15.262,13.344 15.444,12.901 15.792,12.553 C16.421,12.131 16.15,12.202 16.52,12.131 C15.938,11.768 16.148,11.993 15.838,11.511 C15.696,11.204 15.609,10.799 15.558,10.28 L15.557,10.257 L15.328,6.833 C15.284,6.151 15.262,5.659 15.262,5.349 C15.262,4.775 15.427,4.283 15.775,3.911 C16.129,3.533 16.601,3.341 17.141,3.341 z M17.084,13.523 C16.981,13.523 16.919,13.548 16.853,13.614 C16.787,13.68 16.762,13.74 16.762,13.837 C16.762,13.968 16.784,14.022 16.829,14.06 C16.909,14.13 16.988,14.159 17.098,14.159 C17.2,14.159 17.273,14.131 17.35,14.063 C17.397,14.021 17.42,13.965 17.42,13.837 C17.42,13.744 17.395,13.686 17.328,13.62 C17.256,13.55 17.189,13.523 17.084,13.523 z M17.141,4.841 C17.004,4.841 16.931,4.871 16.87,4.936 C16.804,5.007 16.762,5.132 16.762,5.349 C16.762,5.619 16.783,6.085 16.825,6.735 L17.052,10.139 L17.06,10.196 L17.065,10.157 L17.374,6.622 C17.405,6.324 17.42,6.03 17.42,5.742 C17.42,5.312 17.369,5.009 17.288,4.845 C17.288,4.843 17.284,4.841 17.141,4.841 z" fill="#FFFFFF"/>
    </g>
    <path d="M16.305,10.207 L16.076,6.785 Q16.012,5.784 16.012,5.349 Q16.012,4.755 16.323,4.423 Q16.634,4.091 17.141,4.091 Q17.755,4.091 17.963,4.516 Q18.17,4.941 18.17,5.742 Q18.17,6.213 18.12,6.699 L17.813,10.222 Q17.763,10.85 17.598,11.186 Q17.434,11.522 17.055,11.522 Q16.669,11.522 16.519,11.197 Q16.369,10.872 16.305,10.207 z M17.098,14.909 Q16.662,14.909 16.337,14.627 Q16.012,14.345 16.012,13.837 Q16.012,13.394 16.323,13.083 Q16.634,12.773 17.084,12.773 Q17.534,12.773 17.852,13.083 Q18.17,13.394 18.17,13.837 Q18.17,14.337 17.848,14.623 Q17.527,14.909 17.098,14.909 z" fill="#000000"/>
  </g>
</svg>
