<?xml version="1.0" encoding="UTF-8"?>
<!DOCTYPE svg PUBLIC "-//W3C//DTD SVG 1.1//EN" "http://www.w3.org/Graphics/SVG/1.1/DTD/svg11.dtd">
<svg version="1.1" xmlns="http://www.w3.org/2000/svg" xmlns:xlink="http://www.w3.org/1999/xlink" x="0" y="0" width="31" height="34" viewBox="0, 0, 31, 34">
  <g id="Background">
    <rect x="0" y="0" width="31" height="34" fill="#000000" fill-opacity="0"/>
  </g>
  <g id="Flag">
    <path d="M2,1 C2,1 27.909,1 29.455,1 C31,1 31,2.545 31,2.545 C31,2.545 31,14.909 31,16.455 C31,18 29.455,18 29.455,18 C29.455,18 3.545,18 2,18 C2,1.455 2,1 2,1 z" fill="#FF0002"/>
    <path d="M1,-0 C1,-0 1,0 2,-0 C3,-0 3,1 3,1 C3,1 3,32 3,33 C3,34 2,34 2,34 C2,34 2,34 1,34 C0,34 0,33 0,33 C0,33 -0,2 0,1 C0,-0 1,-0 1,-0 z" fill="#444443"/>
    <path d="M4.765,2 C4.765,2 28.471,2 29.235,2 C30,2 30,2.75 30,2.75 C30,2.75 30,15.5 30,16.25 C30,17 29.235,17 29.235,17 C29.235,17 5.529,17 4.765,17 C4,17 4,16.25 4,16.25 C4,16.25 4,3.5 4,2.75 C4,2 4.765,2 4.765,2 z" fill="#FA837D"/>
    <path d="M16,4 L19,4 L19,7 L18.5,10.567 L16.5,10.567 L16,7 L16,4 z M16,12 L19,12 L19,15 L16,15 z" fill="#444443"/>
  </g>
</svg>
