<?xml version="1.0" encoding="UTF-8"?>
<!DOCTYPE svg PUBLIC "-//W3C//DTD SVG 1.1//EN" "http://www.w3.org/Graphics/SVG/1.1/DTD/svg11.dtd">
<svg version="1.1" xmlns="http://www.w3.org/2000/svg" xmlns:xlink="http://www.w3.org/1999/xlink" x="0" y="0" width="36" height="22" viewBox="0, 0, 36, 22">
  <g id="Background">
    <rect x="0" y="0" width="36" height="22" fill="#000000" fill-opacity="0"/>
  </g>
  <g id="Flag">
    <path d="M2,-0 C2,-0 32,-0 34,-0 C36,-0 36,2 36,2 C36,2 36,18 36,20 C36,22 34,22 34,22 C34,22 4,22 2,22 C0,22 -0,20 -0,20 C-0,20 0,3 -0,2 C-0,-0 2,-0 2,-0 z" fill="#FF0002"/>
    <path d="M2.941,2 C2.941,2 32.118,2 33.059,2 C34,2 34,2.9 34,2.9 C34,2.9 34,18.2 34,19.1 C34,20 33.059,20 33.059,20 C33.059,20 3.882,20 2.941,20 C2,20 2,19.1 2,19.1 C2,19.1 2,3.8 2,2.9 C2,2 2.941,2 2.941,2 z" fill="#FA837D"/>
    <g>
      <path d="M16.983,11.915 L16.687,7.486 Q16.604,6.192 16.604,5.627 Q16.604,4.86 17.006,4.43 Q17.408,4 18.065,4 Q18.86,4 19.128,4.55 Q19.396,5.1 19.396,6.136 Q19.396,6.746 19.332,7.375 L18.934,11.934 Q18.869,12.748 18.657,13.182 Q18.444,13.617 17.954,13.617 Q17.454,13.617 17.26,13.196 Q17.066,12.775 16.983,11.915 z M18.009,18 Q17.445,18 17.024,17.635 Q16.604,17.269 16.604,16.613 Q16.604,16.04 17.006,15.637 Q17.408,15.235 17.991,15.235 Q18.573,15.235 18.985,15.637 Q19.396,16.04 19.396,16.613 Q19.396,17.26 18.98,17.63 Q18.564,18 18.009,18 z" fill="#000000"/>
      <path d="M17.991,14.485 C18.574,14.485 19.094,14.695 19.509,15.101 C19.928,15.51 20.146,16.029 20.146,16.613 C20.146,17.25 19.923,17.795 19.478,18.191 C19.064,18.559 18.563,18.75 18.009,18.75 C17.453,18.75 16.95,18.563 16.533,18.201 C16.08,17.808 15.854,17.259 15.854,16.613 C15.854,16.032 16.066,15.516 16.476,15.107 C16.885,14.697 17.405,14.485 17.991,14.485 z M17.991,15.985 C17.8,15.985 17.663,16.041 17.536,16.168 C17.409,16.295 17.354,16.429 17.354,16.613 C17.354,16.843 17.408,16.975 17.516,17.068 C17.66,17.193 17.813,17.25 18.009,17.25 C18.195,17.25 18.342,17.194 18.482,17.069 C18.592,16.972 18.646,16.839 18.646,16.613 C18.646,16.433 18.591,16.301 18.461,16.174 C18.327,16.043 18.184,15.985 17.991,15.985 z" fill="#FFFFFF"/>
      <path d="M18.065,3.25 C18.862,3.25 19.486,3.573 19.802,4.222 C20.039,4.707 20.146,5.342 20.146,6.136 C20.146,6.569 20.123,7.007 20.079,7.44 L19.681,11.993 C19.632,12.622 19.52,13.124 19.33,13.512 C19.062,14.06 18.566,14.367 17.954,14.367 C17.335,14.367 16.834,14.063 16.579,13.51 C16.408,13.139 16.299,12.637 16.236,11.988 L16.234,11.965 L15.938,7.534 C15.882,6.656 15.854,6.024 15.854,5.627 C15.854,4.937 16.049,4.355 16.458,3.918 C16.873,3.474 17.425,3.25 18.065,3.25 z M18.065,4.75 C17.829,4.75 17.675,4.812 17.554,4.942 C17.426,5.079 17.354,5.294 17.354,5.627 C17.354,5.983 17.381,6.59 17.435,7.436 L17.73,11.847 C17.84,12.614 17.76,12.274 17.939,12.874 L17.954,12.867 C17.995,12.867 17.967,12.884 17.983,12.853 C18.077,12.661 18.15,12.331 18.187,11.869 L18.586,7.298 C18.626,6.904 18.646,6.517 18.646,6.136 C18.646,5.55 18.575,5.127 18.454,4.879 C18.412,4.794 18.328,4.75 18.065,4.75 z" fill="#FFFFFF"/>
    </g>
    <path d="M16.983,11.915 L16.687,7.486 Q16.604,6.192 16.604,5.627 Q16.604,4.86 17.006,4.43 Q17.408,4 18.065,4 Q18.86,4 19.128,4.55 Q19.396,5.1 19.396,6.136 Q19.396,6.746 19.332,7.375 L18.934,11.934 Q18.869,12.748 18.657,13.182 Q18.444,13.617 17.954,13.617 Q17.454,13.617 17.26,13.196 Q17.066,12.775 16.983,11.915 z M18.009,18 Q17.445,18 17.024,17.635 Q16.604,17.269 16.604,16.613 Q16.604,16.04 17.006,15.637 Q17.408,15.235 17.991,15.235 Q18.573,15.235 18.985,15.637 Q19.396,16.04 19.396,16.613 Q19.396,17.26 18.98,17.63 Q18.564,18 18.009,18 z" fill="#000000"/>
  </g>
</svg>
